<svg version="1.2" xmlns="http://www.w3.org/2000/svg" viewBox="0 0 1343 597" width="1343" height="597"><style>.a{fill:#181818}</style><path fill-rule="evenodd" class="a" d="m40.3 41.2c34.9 2.7 66.3 13.9 93.8 34.7 47.5 36.1 71.4 84.4 71.3 143.8 0 43.1-31.2 77.3-71.8 81.4-43.8 4.5-82.2-22.7-91.7-65.3-1.2-5.7-1.8-11.7-1.9-17.6-0.1-56.9 0-113.9 0-170.9 0-1.9 0.2-3.8 0.3-6.1zm116.7 515.9c0 6.3 0 12.6 0 19-0.1 8.4-3.9 13.2-10.4 13-6.3-0.1-10-4.7-10-12.8 0-39.5 0-78.9 0-118.3 0-2.6 0-5.1 0-7.9-13.8-1-26.9-1.5-39.9-3.1-11.3-1.3-22.5-3.6-33.6-5.8-12-2.5-20.9-9.5-27.7-19.5-14.9-22-25.1-46.1-34.4-70.7-2.8-7.5 1.7-14.1 9.8-14 26.5 0.4 53 1.6 78.9 8.3 12.6 3.2 22 10.4 28.7 21.3 5.9 9.7 11.4 19.5 18.2 31.1 0-4.1 0-6.3 0-8.6 0-21.4 0.1-42.9-0.1-64.4-0.1-4.8 1.5-6.8 6.3-6.6 4.5 0.3 9 0.1 14 0.1 0 62 0 122.9 0 185.7 1.9-3.2 2.9-4.7 3.7-6.3 1.7-3.3 3.4-6.6 5-10 11.6-25 31.5-37.9 58.6-40.2 17.7-1.5 35.4-2.8 53.1-3.7 14.3-0.8 18.5 5.4 12.8 18.7-7.1 16.7-15 33-22.3 49.6-11.3 25.7-31.3 38.3-58.8 40.3-17 1.3-34 3.1-51.9 4.8zm8.6-485.5c27.1-18 55.6-27.8 87.5-30.3 0.2 2.3 0.4 4.4 0.4 6.5 0.1 56.3 0.2 112.6 0 168.9-0.1 36.8-20.7 67.2-53.1 79.5-1 0.4-2 0.7-4.1 1.4 1.1-1.6 1.4-2.2 1.9-2.7 23.5-23.5 33.1-52.4 31.7-84.8-2.2-53.2-23.6-98.1-60.8-135.8-0.8-0.7-1.7-1.4-3.5-2.7zm11.2-35c-9.6 6-18.5 11.5-27.5 16.9-1.3 0.7-3.8 0.8-5 0.1-9-5.4-17.8-11-27.5-17.1 9.8-11.9 19.7-23.9 30-36.3 10.2 12.4 20 24.3 30 36.4zm286.3 220.9q-3.8-7-10.9-10.7-7.2-3.7-16.8-3.7-16.7 0-26.8 10.9-10 11-10 29.3 0 19.5 10.5 30.5 10.6 10.9 29.1 10.9 12.7 0 21.4-6.4 8.8-6.4 12.8-18.5h-43.7v-25.4h74.9v32q-3.8 12.9-13 24-9.2 11-23.2 17.9-14.1 6.8-31.8 6.8-21 0-37.3-9.2-16.4-9.1-25.6-25.4-9.2-16.3-9.2-37.2 0-20.9 9.2-37.3 9.2-16.4 25.5-25.6 16.2-9.1 37.2-9.1 25.3 0 42.7 12.3 17.4 12.2 23.1 33.9zm89.8 88.7q-16.6-9.2-26.4-25.8-9.7-16.6-9.7-37.3 0-20.7 9.7-37.2 9.8-16.5 26.4-25.8 16.6-9.2 36.5-9.2 19.9 0 36.5 9.2 16.6 9.3 26.2 25.8 9.5 16.5 9.5 37.2 0 20.7-9.6 37.3-9.7 16.6-26.2 25.8-16.5 9.3-36.4 9.3-19.9 0-36.5-9.3zm63.6-33.3q10.1-11.3 10.1-29.8 0-18.7-10.1-29.9-10.2-11.1-27.1-11.1-17.1 0-27.3 11-10.1 11.1-10.1 30 0 18.7 10.1 29.9 10.2 11.1 27.3 11.1 16.9 0 27.1-11.2zm98.7 14.6h45v26.6h-79.5v-141.2h34.5zm221.5-114.6v141.1h-34.4v-84.6l-31.6 84.6h-27.8l-31.8-84.8v84.8h-34.4v-141.1h40.7l39.6 97.7 39.2-97.7zm112.7 116.2h-52.7l-8.5 24.9h-36l51.1-141.1h39.9l51.1 141.1h-36.5zm-8.8-26.5l-17.5-51.7-17.3 51.7zm141.2 51.5l-29.4-53.3h-8.2v53.3h-34.4v-141.2h57.7q16.7 0 28.5 5.8 11.8 5.9 17.6 16 5.8 10.2 5.8 22.6 0 14.1-7.9 25.2-8 11-23.4 15.7l32.5 55.9zm-37.6-77.6h21.3q9.5 0 14.2-4.7 4.8-4.6 4.8-13 0-8.1-4.8-12.7-4.7-4.6-14.2-4.6h-21.3zm198.4-63.6v27.6h-37.4v113.6h-34.4v-113.6h-37.5v-27.6zm-949.8 378.9q-12.2-5-19.6-14.9-7.3-9.8-7.7-23.7h36.6q0.8 7.8 5.4 12 4.6 4.1 12.1 4.1 7.6 0 12.1-3.5 4.4-3.5 4.4-9.8 0-5.2-3.5-8.6-3.6-3.4-8.7-5.7-5.1-2.2-14.6-5-13.7-4.2-22.3-8.4-8.7-4.3-14.9-12.5-6.2-8.3-6.2-21.5 0-19.7 14.3-30.9 14.2-11.2 37.2-11.2 23.3 0 37.6 11.2 14.3 11.2 15.3 31.1h-37.2q-0.4-6.9-5.1-10.8-4.6-3.9-11.8-3.9-6.3 0-10.1 3.3-3.8 3.3-3.8 9.6 0 6.8 6.4 10.6 6.5 3.8 20.1 8.3 13.7 4.6 22.3 8.8 8.5 4.2 14.8 12.3 6.2 8 6.2 20.7 0 12.1-6.1 21.9-6.2 9.9-17.8 15.7-11.7 5.8-27.6 5.8-15.5 0-27.8-5zm202-137.6v27.6h-37.4v113.6h-34.4v-113.6h-37.4v-27.6zm47.6 133.4q-16.6-9.3-26.4-25.9-9.8-16.5-9.8-37.3 0-20.7 9.8-37.2 9.8-16.5 26.4-25.7 16.6-9.3 36.5-9.3 19.9 0 36.5 9.3 16.6 9.2 26.1 25.7 9.6 16.5 9.6 37.2 0 20.8-9.7 37.3-9.6 16.6-26.1 25.9-16.5 9.2-36.4 9.2-19.9 0-36.5-9.2zm63.5-33.4q10.2-11.3 10.2-29.8 0-18.7-10.2-29.8-10.1-11.2-27-11.2-17.1 0-27.3 11.1-10.1 11-10.1 29.9 0 18.7 10.1 29.9 10.2 11.2 27.3 11.2 16.9 0 27-11.3zm136.3 41.2l-29.3-53.3h-8.3v53.3h-34.4v-141.2h57.8q16.7 0 28.4 5.9 11.8 5.8 17.6 16 5.9 10.1 5.9 22.6 0 14.1-8 25.1-7.9 11.1-23.4 15.7l32.6 55.9zm-37.7-77.6h21.4q9.4 0 14.2-4.6 4.7-4.6 4.7-13.1 0-8-4.7-12.7-4.8-4.6-14.2-4.6h-21.4zm131.2-36v28.6h46.1v26.5h-46.1v31h52.1v27.5h-86.5v-141.1h86.5v27.5z"/></svg>